<svg width="485" height="84" viewBox="0 0 485 84" fill="none" xmlns="http://www.w3.org/2000/svg">
<ellipse cx="231.248" cy="16.1479" rx="7.18161" ry="6.92061" fill="#645A48"/>
<ellipse cx="284.871" cy="16.1479" rx="7.18161" ry="6.92061" fill="#645A48"/>
<ellipse cx="258.059" cy="6.92061" rx="7.18161" ry="6.92061" fill="#645A48"/>
<path d="M148.742 25.9294C140.635 25.9294 136.581 28.6669 136.581 34.1419C136.581 36.9716 137.538 39.0017 139.454 40.232C141.369 41.4008 145.582 42.8772 152.093 44.6612C158.668 46.3836 163.297 48.4752 165.978 50.9359C168.659 53.335 169.999 57.149 169.999 62.3779C169.999 69.0217 168.02 74.0046 164.063 77.3265C160.169 80.5868 154.838 82.217 148.072 82.217C142.645 82.217 136.645 81.6019 130.07 80.3715L126.622 79.7256L127.676 71.5131C136.294 72.6204 142.869 73.1741 147.401 73.1741C155.317 73.1741 159.275 69.7907 159.275 63.0239C159.275 60.3787 158.381 58.4409 156.594 57.2106C154.806 55.9187 150.785 54.5346 144.529 53.0582C138.273 51.5203 133.613 49.4287 130.548 46.7835C127.484 44.1383 125.952 39.9552 125.952 34.2341C125.952 28.5131 127.867 24.2069 131.697 21.3157C135.591 18.3629 140.954 16.8865 147.784 16.8865C152.7 16.8865 158.509 17.4401 165.212 18.5474L168.563 19.1011L167.701 27.4058C158.764 26.4215 152.444 25.9294 148.742 25.9294Z" fill="#A4936C"/>
<path d="M175.76 35.0646H186.005L193.57 72.6204H195.485L204.582 35.9874H215.306L224.403 72.6204H226.318L233.787 35.0646H244.128L233.979 81.202H217.413L209.944 49.5517L202.475 81.202H185.91L175.76 35.0646Z" fill="#A4936C"/>
<path d="M252.993 81.202V21.2233H263.431V81.202H252.993Z" fill="#A4936C"/>
<path d="M301.848 43.6462H288.634V63.9466C288.634 67.6991 288.922 70.1905 289.496 71.4209C290.071 72.6512 291.539 73.2664 293.901 73.2664L301.753 72.9895L302.231 81.0174C297.954 81.8172 294.699 82.217 292.464 82.217C287.038 82.217 283.304 81.0174 281.261 78.6183C279.282 76.2192 278.293 71.6977 278.293 65.0539V43.6462H272.164V35.0646H278.293H288.634H301.848V43.6462Z" fill="#A4936C"/>
<path d="M328.315 34.0496C331.698 34.0496 335.688 34.4802 340.284 35.3414L342.678 35.8028L342.295 43.7384C337.252 43.2463 333.518 43.0002 331.092 43.0002C326.24 43.0002 322.985 44.046 321.325 46.1376C319.665 48.2291 318.835 52.1662 318.835 57.9488C318.835 63.7313 319.633 67.7299 321.229 69.9445C322.825 72.1591 326.144 73.2664 331.188 73.2664L342.391 72.5282L342.678 80.5561C336.231 81.6634 331.379 82.217 328.123 82.217C320.846 82.217 315.707 80.3408 312.707 76.5883C309.77 72.7742 308.302 66.5611 308.302 57.9488C308.302 49.3364 309.866 43.2155 312.994 39.5861C316.122 35.8951 321.229 34.0496 328.315 34.0496Z" fill="#A4936C"/>
<path d="M363.206 81.202H352.769V17.071H363.206V37.4638C367.93 35.1876 372.303 34.0496 376.325 34.0496C382.708 34.0496 387.049 35.8028 389.347 39.3092C391.709 42.7542 392.89 48.4752 392.89 56.4724V81.202H382.453V56.7492C382.453 51.7663 381.91 48.2291 380.825 46.1376C379.74 44.046 377.442 43.0002 373.931 43.0002C370.867 43.0002 367.803 43.4924 364.738 44.4766L363.206 45.0303V81.202Z" fill="#A4936C"/>
<path d="M20.777 82.1956C15.5428 82.1956 11.3938 81.4887 8.32994 80.0748C5.32988 78.6043 3.19155 76.1724 1.91493 72.779C0.63831 69.3856 0 64.7762 0 58.9509C0 53.0125 0.670225 48.3748 2.01068 45.038C3.35113 41.7012 5.55329 39.3541 8.61718 37.9967C11.7449 36.6394 15.8939 35.9607 21.0642 35.9607C25.4047 35.9607 28.9473 36.4131 31.6921 37.3181C34.5006 38.1664 36.5751 39.6651 37.9156 41.8143C39.3199 43.9634 40.022 46.9327 40.022 50.7219C40.022 53.267 39.4475 55.3313 38.2986 56.9149C37.2134 58.4419 35.6177 59.5448 33.5113 60.2234C31.4048 60.9021 28.9154 61.2415 26.043 61.2415H5.55329C5.55329 65.3701 6.00011 68.6786 6.89374 71.1671C7.78738 73.6556 9.38315 75.4654 11.6811 76.5966C14.0428 77.7277 17.4897 78.2933 22.0217 78.2933H38.8731V81.2625C35.8092 81.5452 32.9049 81.7715 30.1601 81.9411C27.4792 82.1108 24.3515 82.1956 20.777 82.1956ZM5.45755 57.7632H25.66C28.7878 57.7632 31.1176 57.2825 32.6495 56.321C34.1815 55.303 34.9474 53.4367 34.9474 50.7219C34.9474 47.8941 34.4687 45.6884 33.5113 44.1048C32.6176 42.5212 31.1495 41.4184 29.1069 40.7963C27.1282 40.1176 24.4473 39.7783 21.0642 39.7783C17.0429 39.7783 13.8832 40.2873 11.5853 41.3053C9.35124 42.3233 7.75546 44.1331 6.798 46.7347C5.90436 49.3363 5.45755 53.0125 5.45755 57.7632Z" fill="#645A48"/>
<path d="M61.4683 82.1956C58.5959 82.1956 55.947 81.8563 53.5214 81.1776C51.0958 80.4989 48.9575 79.3395 47.1064 77.6994C45.3191 76.0027 43.9148 73.6556 42.8935 70.6581C41.8722 67.6606 41.3616 63.8148 41.3616 59.1206C41.3616 54.4264 41.8403 50.5806 42.7978 47.5831C43.7553 44.5856 45.0957 42.2385 46.8191 40.5418C48.6064 38.8451 50.7447 37.6857 53.2341 37.0635C55.7236 36.3849 58.5002 36.0455 61.5641 36.0455C63.9258 36.0455 66.6067 36.1304 69.6068 36.3C72.6707 36.4131 75.5112 36.6394 78.1282 36.9787V39.9479H62.8088C59.4258 39.9479 56.5534 40.4569 54.1916 41.475C51.8937 42.4364 50.1064 44.3311 48.8298 47.1589C47.5532 49.9302 46.9149 54.0022 46.9149 59.3751C46.9149 64.4652 47.5851 68.3959 48.9256 71.1671C50.266 73.8818 52.1171 75.7482 54.4789 76.7662C56.8406 77.7277 59.6172 78.2084 62.8088 78.2084H78.8942V81.1776C77.4261 81.3473 75.7665 81.517 73.9154 81.6866C72.0643 81.8563 70.0855 81.9694 67.9791 82.026C65.8727 82.1391 63.7024 82.1956 61.4683 82.1956Z" fill="#645A48"/>
<path d="M99.767 82.1956C96.2563 82.1956 93.1286 81.8846 90.3839 81.2625C87.7029 80.5838 85.4369 79.4244 83.5858 77.7842C81.7347 76.0875 80.3624 73.7404 79.4688 70.743C78.5751 67.6889 78.1283 63.7865 78.1283 59.0358C78.1283 54.2284 78.5751 50.326 79.4688 47.3286C80.4262 44.2745 81.7986 41.9274 83.5858 40.2873C85.4369 38.6471 87.7029 37.516 90.3839 36.8939C93.1286 36.2718 96.2563 35.9607 99.767 35.9607C103.278 35.9607 106.374 36.2718 109.054 36.8939C111.799 37.516 114.097 38.6471 115.948 40.2873C117.799 41.9274 119.172 44.2745 120.065 47.3286C121.023 50.326 121.501 54.2284 121.501 59.0358C121.501 63.7865 121.023 67.6889 120.065 70.743C119.172 73.797 117.799 76.1441 115.948 77.7842C114.161 79.4244 111.895 80.5838 109.15 81.2625C106.405 81.8846 103.278 82.1956 99.767 82.1956ZM99.767 78.0387C102.32 78.0387 104.618 77.8408 106.661 77.4449C108.703 76.9925 110.395 76.1441 111.735 74.8999C113.076 73.5991 114.097 71.6761 114.799 69.1311C115.565 66.586 115.948 63.2209 115.948 59.0358C115.948 54.794 115.565 51.4289 114.799 48.9404C114.097 46.3954 113.076 44.5007 111.735 43.2565C110.395 41.9557 108.703 41.1073 106.661 40.7114C104.618 40.259 102.32 40.0328 99.767 40.0328C97.1499 40.0328 94.852 40.259 92.8733 40.7114C90.8945 41.1073 89.203 41.9557 87.7987 43.2565C86.4582 44.5007 85.437 46.3954 84.7348 48.9404C84.0327 51.4289 83.6816 54.794 83.6816 59.0358C83.6816 63.2209 84.0327 66.586 84.7348 69.1311C85.437 71.6761 86.4582 73.5991 87.7987 74.8999C89.203 76.1441 90.8945 76.9925 92.8733 77.4449C94.852 77.8408 97.1499 78.0387 99.767 78.0387Z" fill="#645A48"/>
<path d="M410.387 71.5992C404.795 40.5561 426.981 28.1564 475.86 16.812C479.829 53.1316 449.913 78.1663 416.068 74.2374L410.387 71.5992Z" fill="#645A48"/>
<path d="M474.532 18.0188L433.96 62.9812L433.96 56.4513L408.589 80.6174L400.882 78.6915L448.047 36.9686L447.578 41.6296L474.532 18.0188Z" fill="#A4936C"/>
</svg>
