<svg width="569" height="126" viewBox="0 0 569 126" fill="none" xmlns="http://www.w3.org/2000/svg">
<path d="M177.25 96V54.075H161.8V47.7H200.8V54.075H185.425V96H177.25ZM215.247 96.75C209.047 96.75 204.247 95.225 200.847 92.175C197.447 89.125 195.747 84.45 195.747 78.15C195.747 72.45 197.197 67.95 200.097 64.65C202.997 61.35 207.397 59.7 213.297 59.7C218.697 59.7 222.747 61.125 225.447 63.975C228.197 66.775 229.572 70.4 229.572 74.85V81.45H203.547C203.947 84.9 205.197 87.275 207.297 88.575C209.397 89.875 212.597 90.525 216.897 90.525C218.697 90.525 220.547 90.35 222.447 90C224.347 89.65 225.997 89.2 227.397 88.65V94.65C225.797 95.35 223.947 95.875 221.847 96.225C219.797 96.575 217.597 96.75 215.247 96.75ZM203.547 76.125H222.372V73.65C222.372 71.2 221.697 69.3 220.347 67.95C218.997 66.55 216.722 65.85 213.522 65.85C209.722 65.85 207.097 66.675 205.647 68.325C204.247 69.975 203.547 72.575 203.547 76.125ZM252.006 96.75C245.756 96.75 241.031 95.175 237.831 92.025C234.631 88.825 233.031 84.225 233.031 78.225C233.031 71.975 234.781 67.325 238.281 64.275C241.831 61.225 246.556 59.7 252.456 59.7C254.906 59.7 256.956 59.875 258.606 60.225C260.306 60.575 261.931 61.125 263.481 61.875V67.95C260.881 66.65 257.731 66 254.031 66C249.931 66 246.781 66.925 244.581 68.775C242.381 70.575 241.281 73.725 241.281 78.225C241.281 82.475 242.256 85.6 244.206 87.6C246.156 89.55 249.381 90.525 253.881 90.525C257.431 90.525 260.656 89.85 263.556 88.5V94.725C261.906 95.375 260.131 95.875 258.231 96.225C256.381 96.575 254.306 96.75 252.006 96.75ZM267.053 96V45.45H275.228V63.9C276.778 62.65 278.628 61.65 280.778 60.9C282.928 60.1 285.353 59.7 288.053 59.7C292.553 59.7 295.878 60.775 298.028 62.925C300.178 65.075 301.253 68.425 301.253 72.975V96H293.153V73.35C293.153 70.6 292.553 68.675 291.353 67.575C290.203 66.475 288.178 65.925 285.278 65.925C283.478 65.925 281.653 66.325 279.803 67.125C277.953 67.875 276.428 68.875 275.228 70.125V96H267.053ZM307.413 96V60.45H314.913L315.288 64.2C316.888 62.95 318.788 61.9 320.988 61.05C323.238 60.15 325.713 59.7 328.413 59.7C333.013 59.7 336.363 60.775 338.463 62.925C340.563 65.075 341.613 68.425 341.613 72.975V96H333.513V73.35C333.513 70.6 332.938 68.675 331.788 67.575C330.688 66.475 328.588 65.925 325.488 65.925C323.638 65.925 321.813 66.3 320.013 67.05C318.263 67.8 316.788 68.775 315.588 69.975V96H307.413ZM364.064 96.75C357.664 96.75 352.964 95.15 349.964 91.95C347.014 88.75 345.539 84.175 345.539 78.225C345.539 72.275 347.039 67.7 350.039 64.5C353.039 61.3 357.714 59.7 364.064 59.7C370.464 59.7 375.164 61.3 378.164 64.5C381.164 67.7 382.664 72.275 382.664 78.225C382.664 84.175 381.164 88.75 378.164 91.95C375.214 95.15 370.514 96.75 364.064 96.75ZM364.064 89.85C367.814 89.85 370.464 88.95 372.014 87.15C373.614 85.3 374.414 82.325 374.414 78.225C374.414 74.125 373.614 71.175 372.014 69.375C370.464 67.575 367.814 66.675 364.064 66.675C360.364 66.675 357.714 67.575 356.114 69.375C354.564 71.175 353.789 74.125 353.789 78.225C353.789 82.325 354.564 85.3 356.114 87.15C357.714 88.95 360.364 89.85 364.064 89.85ZM396.469 96.75C393.569 96.75 391.369 96.05 389.869 94.65C388.369 93.2 387.619 90.825 387.619 87.525V45.45H395.794V86.775C395.794 88.175 396.044 89.125 396.544 89.625C397.044 90.125 397.794 90.375 398.794 90.375C399.994 90.375 401.144 90.225 402.244 89.925V95.85C401.294 96.2 400.369 96.425 399.469 96.525C398.619 96.675 397.619 96.75 396.469 96.75ZM422.664 96.75C416.264 96.75 411.564 95.15 408.564 91.95C405.614 88.75 404.139 84.175 404.139 78.225C404.139 72.275 405.639 67.7 408.639 64.5C411.639 61.3 416.314 59.7 422.664 59.7C429.064 59.7 433.764 61.3 436.764 64.5C439.764 67.7 441.264 72.275 441.264 78.225C441.264 84.175 439.764 88.75 436.764 91.95C433.814 95.15 429.114 96.75 422.664 96.75ZM422.664 89.85C426.414 89.85 429.064 88.95 430.614 87.15C432.214 85.3 433.014 82.325 433.014 78.225C433.014 74.125 432.214 71.175 430.614 69.375C429.064 67.575 426.414 66.675 422.664 66.675C418.964 66.675 416.314 67.575 414.714 69.375C413.164 71.175 412.389 74.125 412.389 78.225C412.389 82.325 413.164 85.3 414.714 87.15C416.314 88.95 418.964 89.85 422.664 89.85ZM460.618 109.2C457.968 109.2 455.318 109.025 452.668 108.675C450.018 108.375 447.768 107.9 445.918 107.25V100.95C447.918 101.6 450.218 102.1 452.818 102.45C455.418 102.8 457.893 102.975 460.243 102.975C463.843 102.975 466.468 102.775 468.118 102.375C469.768 101.975 470.593 101.075 470.593 99.675C470.593 98.625 470.193 97.875 469.393 97.425C468.593 97.025 467.068 96.825 464.818 96.825H455.218C448.768 96.825 445.543 94.55 445.543 90C445.543 88.55 445.968 87.2 446.818 85.95C447.668 84.7 449.018 83.75 450.868 83.1C448.818 82.1 447.293 80.725 446.293 78.975C445.343 77.225 444.868 75.125 444.868 72.675C444.868 68.125 446.218 64.825 448.918 62.775C451.668 60.725 455.768 59.7 461.218 59.7C462.368 59.7 463.568 59.8 464.818 60C466.068 60.15 467.043 60.3 467.743 60.45H480.793L480.568 65.775H474.568C475.518 66.575 476.218 67.575 476.668 68.775C477.118 69.975 477.343 71.275 477.343 72.675C477.343 76.475 476.193 79.475 473.893 81.675C471.593 83.825 468.118 84.9 463.468 84.9C462.668 84.9 461.918 84.875 461.218 84.825C460.568 84.725 459.843 84.625 459.043 84.525C457.543 84.675 456.193 85.075 454.993 85.725C453.793 86.375 453.193 87.25 453.193 88.35C453.193 89.1 453.493 89.65 454.093 90C454.693 90.3 455.693 90.45 457.093 90.45H467.068C470.618 90.45 473.343 91.225 475.243 92.775C477.193 94.275 478.168 96.475 478.168 99.375C478.168 102.875 476.643 105.375 473.593 106.875C470.593 108.425 466.268 109.2 460.618 109.2ZM461.218 79.725C464.468 79.725 466.718 79.175 467.968 78.075C469.268 76.975 469.918 75.1 469.918 72.45C469.918 69.8 469.268 67.875 467.968 66.675C466.718 65.475 464.468 64.875 461.218 64.875C458.168 64.875 455.943 65.45 454.543 66.6C453.143 67.75 452.443 69.7 452.443 72.45C452.443 75 453.093 76.85 454.393 78C455.743 79.15 458.018 79.725 461.218 79.725ZM485.842 53.025V46.275H494.767V53.025H485.842ZM486.517 96V66.675H481.117L481.867 60.45H494.692V96H486.517ZM519.229 96.75C513.029 96.75 508.229 95.225 504.829 92.175C501.429 89.125 499.729 84.45 499.729 78.15C499.729 72.45 501.179 67.95 504.079 64.65C506.979 61.35 511.379 59.7 517.279 59.7C522.679 59.7 526.729 61.125 529.429 63.975C532.179 66.775 533.554 70.4 533.554 74.85V81.45H507.529C507.929 84.9 509.179 87.275 511.279 88.575C513.379 89.875 516.579 90.525 520.879 90.525C522.679 90.525 524.529 90.35 526.429 90C528.329 89.65 529.979 89.2 531.379 88.65V94.65C529.779 95.35 527.929 95.875 525.829 96.225C523.779 96.575 521.579 96.75 519.229 96.75ZM507.529 76.125H526.354V73.65C526.354 71.2 525.679 69.3 524.329 67.95C522.979 66.55 520.704 65.85 517.504 65.85C513.704 65.85 511.079 66.675 509.629 68.325C508.229 69.975 507.529 72.575 507.529 76.125ZM549.996 96.75C547.546 96.75 545.196 96.575 542.946 96.225C540.746 95.875 538.921 95.45 537.471 94.95V88.05C539.171 88.7 541.046 89.2 543.096 89.55C545.146 89.9 547.096 90.075 548.946 90.075C551.746 90.075 553.746 89.825 554.946 89.325C556.146 88.825 556.746 87.85 556.746 86.4C556.746 85.35 556.371 84.525 555.621 83.925C554.921 83.325 553.846 82.775 552.396 82.275C550.996 81.775 549.196 81.175 546.996 80.475C544.896 79.775 543.071 79.025 541.521 78.225C539.971 77.375 538.771 76.3 537.921 75C537.071 73.7 536.646 72 536.646 69.9C536.646 66.65 537.821 64.15 540.171 62.4C542.521 60.6 546.296 59.7 551.496 59.7C553.546 59.7 555.496 59.85 557.346 60.15C559.196 60.45 560.771 60.825 562.071 61.275V68.1C560.671 67.55 559.121 67.125 557.421 66.825C555.771 66.525 554.221 66.375 552.771 66.375C550.171 66.375 548.196 66.6 546.846 67.05C545.546 67.5 544.896 68.4 544.896 69.75C544.896 71.15 545.571 72.15 546.921 72.75C548.321 73.3 550.546 74.075 553.596 75.075C556.396 75.925 558.621 76.825 560.271 77.775C561.921 78.725 563.096 79.875 563.796 81.225C564.546 82.525 564.921 84.225 564.921 86.325C564.921 89.825 563.646 92.45 561.096 94.2C558.546 95.9 554.846 96.75 549.996 96.75Z" fill="#A4936C"/>
<path d="M23.4 97V34.5H37.6V97H23.4ZM2.3 36.5V24H58.7V36.5H2.3ZM74.3047 97L55.7047 24H70.4047L85.5047 87.5L81.6047 85.2H91.6047L87.2047 87.5L99.1047 26.8H111.305L96.5047 97H74.3047ZM117.905 97L101.805 26.8H114.505L128.205 87.5L123.905 85.2H133.705L129.905 87.5L143.205 24H157.105L140.505 97H117.905Z" fill="#645A48"/>
</svg>
