<svg width="84" height="82" viewBox="0 0 84 82" fill="none" xmlns="http://www.w3.org/2000/svg">
<path d="M42 0C36.4845 0 31.023 1.08683 25.9273 3.19842C20.8316 5.31002 16.2016 8.40504 12.3015 12.3068C4.42499 20.1866 0 30.8741 0 42.0179C0 60.5898 12.054 76.3465 28.728 81.9349C30.828 82.2711 31.5 80.9685 31.5 79.834V72.733C19.866 75.2541 17.388 67.1026 17.388 67.1026C15.456 62.2285 12.726 60.926 12.726 60.926C8.904 58.3209 13.02 58.4049 13.02 58.4049C17.22 58.699 19.446 62.7327 19.446 62.7327C23.1 69.1195 29.274 67.2286 31.668 66.2202C32.046 63.4891 33.138 61.6403 34.314 60.5898C24.99 59.5394 15.204 55.9258 15.204 39.917C15.204 35.253 16.8 31.5134 19.53 28.5302C19.11 27.4797 17.64 23.1098 19.95 17.4374C19.95 17.4374 23.478 16.3029 31.5 21.7233C34.818 20.7989 38.43 20.3367 42 20.3367C45.57 20.3367 49.182 20.7989 52.5 21.7233C60.522 16.3029 64.05 17.4374 64.05 17.4374C66.36 23.1098 64.89 27.4797 64.47 28.5302C67.2 31.5134 68.796 35.253 68.796 39.917C68.796 55.9678 58.968 59.4973 49.602 60.5478C51.114 61.8504 52.5 64.4134 52.5 68.3211V79.834C52.5 80.9685 53.172 82.3131 55.314 81.9349C71.988 76.3045 84 60.5898 84 42.0179C84 36.5 82.9136 31.0362 80.8029 25.9383C78.6922 20.8405 75.5985 16.2085 71.6985 12.3068C67.7984 8.40504 63.1684 5.31002 58.0727 3.19842C52.977 1.08683 47.5155 0 42 0Z" fill="#645A48"/>
</svg>
