<svg width="474" height="103" viewBox="0 0 474 103" fill="none" xmlns="http://www.w3.org/2000/svg">
<circle cx="278.451" cy="20.1776" r="8.64754" fill="#645A48"/>
<circle cx="343.019" cy="20.1776" r="8.64754" fill="#645A48"/>
<circle cx="310.735" cy="8.64754" r="8.64754" fill="#645A48"/>
<path d="M179.104 32.3996C169.341 32.3996 164.46 35.8201 164.46 42.6613C164.46 46.1972 165.613 48.7338 167.919 50.2711C170.225 51.7316 175.299 53.5764 183.139 55.8056C191.056 57.9579 196.629 60.5713 199.858 63.646C203.086 66.6438 204.7 71.4096 204.7 77.9433C204.7 86.2449 202.317 92.4712 197.552 96.622C192.863 100.696 186.444 102.733 178.296 102.733C171.763 102.733 164.537 101.964 156.62 100.427L152.469 99.6198L153.737 89.358C164.114 90.7417 172.032 91.4335 177.489 91.4335C187.021 91.4335 191.787 87.2058 191.787 78.7504C191.787 75.4451 190.71 73.0238 188.558 71.4865C186.406 69.8722 181.563 68.1427 174.03 66.2979C166.497 64.3763 160.886 61.7628 157.196 58.4575C153.507 55.1522 151.662 49.9252 151.662 42.7766C151.662 35.628 153.968 30.2473 158.58 26.6345C163.269 22.9449 169.726 21.1001 177.951 21.1001C183.869 21.1001 190.864 21.7919 198.935 23.1755L202.971 23.8673L201.933 34.2444C191.172 33.0145 183.562 32.3996 179.104 32.3996Z" fill="#A4936C"/>
<path d="M211.636 43.8143H223.973L233.082 90.7417H235.388L246.342 44.9673H259.255L270.209 90.7417H272.515L281.508 43.8143H293.961L281.739 101.465H261.792L252.799 61.9165L243.805 101.465H223.858L211.636 43.8143Z" fill="#A4936C"/>
<path d="M304.635 101.465V26.5192H317.203V101.465H304.635Z" fill="#A4936C"/>
<path d="M363.463 54.5373H347.551V79.9034C347.551 84.5923 347.897 87.7054 348.589 89.2428C349.281 90.7801 351.049 91.5488 353.893 91.5488L363.348 91.2029L363.924 101.234C358.774 102.233 354.854 102.733 352.163 102.733C345.63 102.733 341.133 101.234 338.673 98.2362C336.29 95.2384 335.099 89.5887 335.099 81.287V54.5373H327.72V43.8143H335.099H347.551H363.463V54.5373Z" fill="#A4936C"/>
<path d="M395.332 42.546C399.406 42.546 404.21 43.0841 409.744 44.1602L412.627 44.7367L412.166 54.6526C406.093 54.0376 401.596 53.7302 398.675 53.7302C392.834 53.7302 388.913 55.0369 386.915 57.6504C384.916 60.2639 383.917 65.1834 383.917 72.4089C383.917 79.6344 384.878 84.6307 386.799 87.3979C388.721 90.1652 392.718 91.5488 398.791 91.5488L412.281 90.6264L412.627 100.658C404.863 102.041 399.021 102.733 395.101 102.733C386.338 102.733 380.15 100.388 376.538 95.6996C373.002 90.9338 371.234 83.1702 371.234 72.4089C371.234 61.6475 373.117 53.9992 376.884 49.464C380.65 44.852 386.8 42.546 395.332 42.546Z" fill="#A4936C"/>
<path d="M437.345 101.465H424.778V21.3306H437.345V46.8121C443.033 43.968 448.299 42.546 453.141 42.546C460.828 42.546 466.055 44.7367 468.822 49.1181C471.666 53.4227 473.088 60.5713 473.088 70.5641V101.465H460.521V70.91C460.521 64.6837 459.867 60.2639 458.561 57.6504C457.254 55.0369 454.487 53.7302 450.259 53.7302C446.569 53.7302 442.88 54.3451 439.19 55.575L437.345 56.2668V101.465Z" fill="#A4936C"/>
<path d="M25.018 102.706C18.7155 102.706 13.7196 101.823 10.0303 100.056C6.41784 98.2188 3.84302 95.18 2.30581 90.9398C0.768604 86.6997 0 80.9401 0 73.6612C0 66.2409 0.807034 60.446 2.4211 56.2765C4.03517 52.107 6.68685 49.1742 10.3762 47.4782C14.1423 45.7821 19.1382 44.9341 25.3639 44.9341C30.5904 44.9341 34.8562 45.4994 38.1612 46.6301C41.543 47.6902 44.041 49.5629 45.6551 52.2484C47.346 54.9338 48.1915 58.6439 48.1915 63.3788C48.1915 66.5589 47.4997 69.1383 46.1162 71.1171C44.8096 73.0252 42.8881 74.4032 40.3517 75.2512C37.8153 76.0993 34.8177 76.5233 31.359 76.5233H6.68685C6.68685 81.6822 7.22487 85.8163 8.30092 88.9258C9.37696 92.0352 11.2985 94.2966 14.0654 95.71C16.9093 97.1234 21.0597 97.8301 26.5168 97.8301H46.808V101.54C43.1187 101.894 39.6215 102.176 36.3165 102.388C33.0884 102.6 29.3222 102.706 25.018 102.706ZM6.57156 72.1771H30.8979C34.664 72.1771 37.4694 71.5764 39.3141 70.375C41.1587 69.103 42.0811 66.7709 42.0811 63.3788C42.0811 59.8453 41.5046 57.0892 40.3517 55.1105C39.2757 53.1317 37.5079 51.7537 35.0483 50.9763C32.6657 50.1283 29.4375 49.7043 25.3639 49.7043C20.5217 49.7043 16.7171 50.3403 13.9502 51.6123C11.26 52.8844 9.33853 55.1458 8.18563 58.3966C7.10958 61.6474 6.57156 66.2409 6.57156 72.1771Z" fill="#645A48"/>
<path d="M74.0155 102.706C70.5568 102.706 67.3671 102.282 64.4464 101.434C61.5257 100.586 58.9509 99.1375 56.7219 97.0881C54.5698 94.968 52.8789 92.0352 51.6491 88.2897C50.4194 84.5443 49.8045 79.7387 49.8045 73.8732C49.8045 68.0076 50.3809 63.2021 51.5338 59.4566C52.6867 55.7112 54.3008 52.7784 56.376 50.6583C58.5281 48.5382 61.103 47.0895 64.1005 46.3121C67.0981 45.4641 70.4415 45.0401 74.1308 45.0401C76.9746 45.0401 80.2027 45.1461 83.8152 45.3581C87.5045 45.4994 90.9248 45.7821 94.076 46.2061V49.9163H75.6296C71.556 49.9163 68.0972 50.5523 65.2534 51.8243C62.4864 53.0257 60.3343 55.3931 58.7971 58.9266C57.2599 62.3894 56.4913 67.4776 56.4913 74.1912C56.4913 80.5514 57.2984 85.463 58.9124 88.9258C60.5265 92.3179 62.7554 94.65 65.5993 95.922C68.4431 97.1234 71.7865 97.7241 75.6296 97.7241H94.9984V101.434C93.2306 101.646 91.2322 101.858 89.0033 102.07C86.7743 102.282 84.3916 102.424 81.8552 102.494C79.3189 102.636 76.7056 102.706 74.0155 102.706Z" fill="#645A48"/>
<path d="M120.132 102.706C115.904 102.706 112.138 102.318 108.833 101.54C105.605 100.692 102.877 99.2435 100.648 97.1941C98.4187 95.074 96.7663 92.1412 95.6902 88.3957C94.6142 84.5796 94.0761 79.7034 94.0761 73.7672C94.0761 67.7603 94.6142 62.8841 95.6902 59.1386C96.8431 55.3225 98.4956 52.3897 100.648 50.3403C102.877 48.2909 105.605 46.8775 108.833 46.1001C112.138 45.3228 115.904 44.9341 120.132 44.9341C124.359 44.9341 128.087 45.3228 131.315 46.1001C134.62 46.8775 137.387 48.2909 139.616 50.3403C141.845 52.3897 143.497 55.3225 144.573 59.1386C145.726 62.8841 146.303 67.7603 146.303 73.7672C146.303 79.7034 145.726 84.5796 144.573 88.3957C143.497 92.2119 141.845 95.1447 139.616 97.1941C137.464 99.2435 134.735 100.692 131.43 101.54C128.125 102.318 124.359 102.706 120.132 102.706ZM120.132 97.5121C123.206 97.5121 125.973 97.2647 128.433 96.7701C130.892 96.2047 132.929 95.1447 134.543 93.5899C136.157 91.9645 137.387 89.5618 138.232 86.3817C139.155 83.2015 139.616 78.9967 139.616 73.7672C139.616 68.467 139.155 64.2622 138.232 61.1527C137.387 57.9726 136.157 55.6052 134.543 54.0504C132.929 52.425 130.892 51.365 128.433 50.8703C125.973 50.305 123.206 50.0223 120.132 50.0223C116.981 50.0223 114.214 50.305 111.831 50.8703C109.448 51.365 107.411 52.425 105.72 54.0504C104.106 55.6052 102.877 57.9726 102.031 61.1527C101.186 64.2622 100.763 68.467 100.763 73.7672C100.763 78.9967 101.186 83.2015 102.031 86.3817C102.877 89.5618 104.106 91.9645 105.72 93.5899C107.411 95.1447 109.448 96.2047 111.831 96.7701C114.214 97.2647 116.981 97.5121 120.132 97.5121Z" fill="#645A48"/>
</svg>
